# This file uses centimeters as units for non-parametric coordinates.

mtllib Rock_01_Hite.mtl
g default
v -4.065599 -4.065599 4.065599
v 4.065599 -4.065599 4.065599
v -2.686886 -4.065599 -4.065599
v -4.065599 -4.065599 -3.340918
v -2.166742 4.065599 -1.293941
v -4.065599 -3.018648 4.065599
v -4.065599 2.289431 1.635565
v 4.065599 -4.065599 -2.863977
v 3.118261 -4.065599 -4.065599
v 1.064194 4.065599 -2.992191
v -4.065599 2.127220 -1.021764
v -4.065599 2.539719 -0.200138
v -3.728101 2.882086 -0.916471
v 4.065599 -1.493132 4.065599
v 4.065599 -1.694324 -1.791136
v -1.718896 4.065599 1.087562
v -3.433622 2.704393 1.952749
v 1.630774 4.065599 -2.273533
v 2.811707 3.267985 -1.136485
v 2.138580 4.065599 1.293317
v 2.744106 3.629412 1.632165
v 0.663577 0.636990 -4.065599
v 1.506227 0.453812 -4.065599
v 1.138185 2.362518 -3.668870
v 3.924203 -0.936086 4.065599
v -2.846527 -0.881713 4.065599
v -2.628926 0.243798 3.724963
v 3.406155 1.083886 3.456460
v 0.141836 -2.577715 4.627223
v 0.000000 -4.065599 4.065599
v 4.409559 -2.779366 4.287152
v 3.994901 -1.214609 4.065599
v 0.538838 -0.908899 4.065599
v -3.483265 -1.950180 4.627223
v -4.065599 -3.542124 4.065599
v 4.869730 -2.903319 0.847680
v 4.065599 -4.065599 0.600811
v 4.065599 -2.879962 -2.327556
v 4.065599 -1.593728 1.137232
v 0.431623 -2.418514 -4.477004
v -1.011654 -1.714305 -4.477004
v 1.084902 0.545401 -4.065599
v 2.312244 -1.805893 -4.477004
v 0.215687 -4.065599 -4.065599
v -0.014333 -4.065599 0.166904
v -3.376243 -4.065599 -3.703259
v 3.591930 -4.065599 -3.464788
v -4.065599 -4.065599 0.362341
v 0.146239 4.353683 -0.529186
v -1.942819 4.065599 -0.103190
v 0.209842 4.065599 1.190439
v 1.884677 4.065599 -0.490108
v 1.347484 4.065599 -2.632862
v -0.551274 4.065599 -2.143066
v -3.604216 -1.509499 0.419184
v -3.604216 -0.364608 2.850582
v -4.065599 2.414575 0.717714
v -4.065599 2.333469 -0.610951
v -3.604216 -0.969190 -2.181341
v -3.152486 3.473129 0.333958
v -3.749611 2.496912 1.794157
v -2.758016 3.597404 1.520155
v -3.129178 3.686250 -1.105206
v -3.896850 2.710903 -0.558305
v -3.575555 -0.047279 3.098562
v -2.737726 -0.318957 3.895281
v -3.031274 1.474096 2.838856
v -1.886863 0.409398 -2.810264
v -3.896850 2.504653 -0.969118
v 1.101190 3.214059 -3.330530
v 0.900881 1.499754 -3.867235
v -3.956163 2.512511 -0.707729
v 2.656095 0.037403 -2.795485
v 2.221240 3.666792 -1.705009
v 3.438653 0.786831 -1.463810
v 1.322206 1.408165 -3.867235
v 3.513384 0.574789 0.933894
v 2.777907 3.448699 0.247840
v 3.075131 2.356649 2.544313
v 3.665179 0.073900 3.761030
v 2.279056 3.774755 -0.330044
v 2.441343 3.847506 1.462741
v 1.113426 1.285049 -3.903790
v -0.028229 1.801925 2.151720
v 0.388615 0.663842 3.590712
v 0.659371 -0.143246 3.833942
vt 0.375000 0.000000
vt 0.625000 0.000000
vt 0.375000 1.000000
vt 0.625000 1.000000
vt 0.417390 0.750000
vt 0.147281 0.000000
vt 0.375000 0.772281
vt 0.433382 0.414783
vt 0.375000 0.032189
vt 0.300287 0.195390
vt 0.625000 0.786945
vt 0.838055 0.000000
vt 0.595873 0.750000
vt 0.532719 0.466997
vt 0.320715 0.292533
vt 0.218585 0.190403
vt 0.243847 0.203086
vt 0.261487 0.242900
vt 0.352232 0.333645
vt 0.625000 0.079093
vt 0.805070 0.072907
vt 0.654147 0.630357
vt 0.447151 0.341562
vt 0.337172 0.215852
vt 0.550139 0.444901
vt 0.569007 0.426034
vt 0.590484 0.437677
vt 0.634836 0.393325
vt 0.565752 0.335236
vt 0.584370 0.311407
vt 0.520402 0.605415
vt 0.546310 0.611047
vt 0.534994 0.540165
vt 0.620653 0.096219
vt 0.412481 0.097891
vt 0.409940 0.133738
vt 0.604725 0.177053
vt 0.505197 0.045746
vt 0.500000 0.000000
vt 0.500000 1.000000
vt 0.625000 0.039546
vt 0.622826 0.087656
vt 0.516567 0.097055
vt 0.393741 0.065040
vt 0.375000 0.016095
vt 0.723937 0.035735
vt 0.625000 0.893472
vt 0.731528 0.000000
vt 0.821563 0.036453
vt 0.639574 0.708651
vt 0.715035 0.076000
vt 0.639574 0.354725
vt 0.513271 0.699359
vt 0.468896 0.677708
vt 0.533356 0.608231
vt 0.571092 0.680524
vt 0.506631 0.750000
vt 0.499559 0.880132
vt 0.282335 0.375000
vt 0.396195 0.761140
vt 0.610437 0.768472
vt 0.625000 0.893472
vt 0.500000 1.000000
vt 0.261140 0.000000
vt 0.375000 0.886140
vt 0.504496 0.391270
vt 0.440267 0.378173
vt 0.506452 0.338399
vt 0.557946 0.390069
vt 0.541429 0.455949
vt 0.550863 0.446516
vt 0.483051 0.440890
vt 0.262888 0.078589
vt 0.337643 0.113790
vt 0.272067 0.199238
vt 0.231216 0.196744
vt 0.233998 0.146266
vt 0.182933 0.095202
vt 0.261140 0.000000
vt 0.355712 0.287035
vt 0.318730 0.205621
vt 0.392162 0.278707
vt 0.347435 0.328842
vt 0.392807 0.374214
vt 0.252667 0.222993
vt 0.298039 0.268365
vt 0.361668 0.124879
vt 0.411211 0.115814
vt 0.373556 0.174795
vt 0.393035 0.417382
vt 0.285408 0.262024
vt 0.336473 0.313089
vt 0.392807 0.374214
vt 0.533857 0.503581
vt 0.527698 0.572790
vt 0.282335 0.375000
vt 0.233998 0.146266
vt 0.270526 0.241170
vt 0.298039 0.268365
vt 0.285408 0.262024
vt 0.596577 0.588346
vt 0.592488 0.419113
vt 0.601921 0.409680
vt 0.622316 0.534017
vt 0.644492 0.511841
vt 0.639574 0.708651
vt 0.540652 0.575606
vt 0.550863 0.446516
vt 0.616961 0.354701
vt 0.609603 0.352366
vt 0.587427 0.374542
vt 0.594547 0.244230
vt 0.612689 0.136636
vt 0.639574 0.354725
vt 0.622316 0.534017
vt 0.582428 0.378224
vt 0.575061 0.323321
vt 0.609603 0.352366
vt 0.592488 0.419113
vt 0.534233 0.580515
vt 0.488870 0.231397
vt 0.507333 0.155396
vt 0.518199 0.125645
vn -0.034318 -0.266534 0.963214
vn -0.034318 -0.266534 0.963214
vn -0.034318 -0.266534 0.963214
vn -0.034318 -0.266534 0.963214
vn 0.898296 -0.434150 0.067666
vn 0.898296 -0.434150 0.067666
vn 0.898296 -0.434150 0.067666
vn 0.898296 -0.434150 0.067666
vn -0.030407 -0.187651 -0.981765
vn -0.030407 -0.187651 -0.981765
vn -0.030407 -0.187651 -0.981765
vn -0.030407 -0.187651 -0.981765
vn 0.000000 -1.000000 0.000000
vn 0.000000 -1.000000 0.000000
vn 0.000000 -1.000000 0.000000
vn 0.000000 -1.000000 0.000000
vn -0.100868 0.992517 -0.068809
vn -0.100868 0.992517 -0.068809
vn -0.100868 0.992517 -0.068809
vn -0.100868 0.992517 -0.068809
vn -0.990410 0.113920 -0.078169
vn -0.990410 0.113920 -0.078169
vn -0.990410 0.113920 -0.078169
vn -0.990410 0.113920 -0.078169
vn -0.695804 0.702279 0.150535
vn -0.695804 0.702279 0.150535
vn -0.695804 0.702279 0.150535
vn -0.695804 0.702279 0.150535
vn -0.927855 0.244636 0.281494
vn -0.927855 0.244636 0.281494
vn -0.927855 0.244636 0.281494
vn -0.927855 0.244636 0.281494
vn -0.488584 0.250496 -0.835786
vn -0.488584 0.250496 -0.835786
vn -0.488584 0.250496 -0.835786
vn -0.488584 0.250496 -0.835786
vn -0.880658 0.423390 -0.212563
vn -0.880658 0.423390 -0.212563
vn -0.880657 0.423390 -0.212563
vn -0.880658 0.423390 -0.212563
vn 0.756193 0.269727 -0.596171
vn 0.756193 0.269727 -0.596171
vn 0.756193 0.269727 -0.596171
vn 0.756193 0.269727 -0.596171
vn 0.969227 0.246023 -0.008451
vn 0.969227 0.246023 -0.008451
vn 0.969227 0.246023 -0.008451
vn 0.969227 0.246023 -0.008451
vn 0.613994 0.784456 -0.087413
vn 0.613994 0.784456 -0.087413
vn 0.613994 0.784456 -0.087413
vn 0.613994 0.784456 -0.087413
vn 0.046040 0.211790 -0.976230
vn 0.046040 0.211790 -0.976230
vn 0.046040 0.211790 -0.976230
vn 0.046040 0.211790 -0.976230
vn 0.009883 0.702261 0.711851
vn 0.009883 0.702261 0.711851
vn 0.009883 0.702261 0.711851
vn 0.009883 0.702261 0.711851
vn 0.002323 0.289262 0.957247
vn 0.002323 0.289262 0.957247
vn 0.002323 0.289262 0.957247
vn 0.002323 0.289262 0.957247
vn 0.032493 -0.276818 0.960373
vn 0.032493 -0.276818 0.960373
vn 0.032493 -0.276818 0.960373
vn 0.032493 -0.276818 0.960373
vn 0.095138 0.164227 0.981824
vn 0.095138 0.164227 0.981824
vn 0.095138 0.164227 0.981824
vn 0.095138 0.164227 0.981824
vn 0.024174 0.273289 0.961628
vn 0.024174 0.273289 0.961628
vn 0.024174 0.273289 0.961628
vn 0.024174 0.273289 0.961628
vn 0.034393 0.368263 0.929085
vn 0.034393 0.368263 0.929085
vn 0.034393 0.368263 0.929085
vn 0.034393 0.368263 0.929085
vn -0.095257 -0.300013 0.949167
vn -0.095257 -0.300013 0.949167
vn -0.095257 -0.300013 0.949167
vn -0.095257 -0.300013 0.949167
vn 0.950888 -0.286912 -0.116165
vn 0.950888 -0.286912 -0.116165
vn 0.950888 -0.286912 -0.116165
vn 0.950888 -0.286912 -0.116165
vn 0.931049 0.342083 -0.126992
vn 0.931049 0.342083 -0.126992
vn 0.931049 0.342083 -0.126992
vn 0.931049 0.342083 -0.126992
vn 0.913816 0.402808 0.051833
vn 0.913816 0.402808 0.051833
vn 0.913816 0.402808 0.051833
vn 0.913816 0.402808 0.051833
vn 0.055110 0.129126 -0.990096
vn 0.055110 0.129126 -0.990096
vn 0.055110 0.129126 -0.990096
vn 0.055110 0.129126 -0.990096
vn -0.034971 0.154505 -0.987373
vn -0.034971 0.154505 -0.987373
vn -0.034971 0.154505 -0.987373
vn -0.034971 0.154505 -0.987373
vn 0.025906 -0.202271 -0.978987
vn 0.025906 -0.202271 -0.978987
vn 0.025906 -0.202271 -0.978987
vn 0.025906 -0.202271 -0.978987
vn 0.000000 -1.000000 0.000000
vn 0.000000 -1.000000 0.000000
vn 0.000000 -1.000000 0.000000
vn 0.000000 -1.000000 0.000000
vn -0.000000 -1.000000 0.000000
vn -0.000000 -1.000000 0.000000
vn -0.000000 -1.000000 0.000000
vn -0.000000 -1.000000 0.000000
vn -0.000000 -1.000000 0.000000
vn -0.000000 -1.000000 0.000000
vn -0.000000 -1.000000 0.000000
vn -0.000000 -1.000000 0.000000
vn -0.000000 -1.000000 0.000000
vn -0.000000 -1.000000 0.000000
vn -0.000000 -1.000000 0.000000
vn -0.000000 -1.000000 0.000000
vn 0.000000 -1.000000 -0.000000
vn 0.000000 -1.000000 -0.000000
vn 0.000000 -1.000000 -0.000000
vn 0.000000 -1.000000 -0.000000
vn -0.062768 0.992548 0.104448
vn -0.062768 0.992548 0.104448
vn -0.062768 0.992548 0.104448
vn -0.062768 0.992548 0.104448
vn 0.075212 0.994346 0.074956
vn 0.075212 0.994346 0.074956
vn 0.075212 0.994346 0.074956
vn 0.075212 0.994346 0.074956
vn 0.148141 0.988269 -0.037139
vn 0.148141 0.988269 -0.037139
vn 0.148141 0.988269 -0.037139
vn 0.148141 0.988269 -0.037139
vn -0.033087 0.991188 -0.128265
vn -0.033087 0.991188 -0.128265
vn -0.033087 0.991188 -0.128265
vn -0.033087 0.991188 -0.128265
vn -0.990251 -0.133258 0.040573
vn -0.990251 -0.133258 0.040573
vn -0.990251 -0.133258 0.040573
vn -0.990251 -0.133258 0.040573
vn -0.993665 -0.112175 0.006847
vn -0.993665 -0.112175 0.006847
vn -0.993665 -0.112175 0.006847
vn -0.993665 -0.112175 0.006847
vn -0.991204 -0.131534 -0.014592
vn -0.991204 -0.131534 -0.014592
vn -0.991204 -0.131534 -0.014592
vn -0.991204 -0.131534 -0.014592
vn -0.987305 0.158257 0.013565
vn -0.987305 0.158257 0.013565
vn -0.987305 0.158257 0.013565
vn -0.987305 0.158257 0.013565
vn -0.988688 0.148513 -0.020993
vn -0.988688 0.148513 -0.020993
vn -0.988688 0.148513 -0.020993
vn -0.988688 0.148513 -0.020993
vn -0.701945 0.682874 0.202378
vn -0.701945 0.682874 0.202379
vn -0.701945 0.682874 0.202378
vn -0.701945 0.682874 0.202379
vn -0.407326 0.911419 0.058319
vn -0.407326 0.911419 0.058319
vn -0.407326 0.911419 0.058319
vn -0.407326 0.911419 0.058319
vn -0.381195 0.918680 0.103526
vn -0.381195 0.918680 0.103526
vn -0.381195 0.918680 0.103526
vn -0.381195 0.918680 0.103526
vn -0.769799 0.636021 0.053736
vn -0.769799 0.636021 0.053736
vn -0.769799 0.636021 0.053736
vn -0.769799 0.636021 0.053736
vn -0.730786 0.679854 0.061237
vn -0.730786 0.679854 0.061237
vn -0.730786 0.679854 0.061237
vn -0.730786 0.679854 0.061237
vn -0.401770 0.521414 0.752801
vn -0.401770 0.521414 0.752801
vn -0.401770 0.521414 0.752801
vn -0.401770 0.521414 0.752801
vn -0.589431 0.336257 0.734508
vn -0.589431 0.336257 0.734508
vn -0.589431 0.336257 0.734508
vn -0.589431 0.336257 0.734508
vn -0.589432 0.336257 0.734508
vn -0.589432 0.336257 0.734508
vn -0.589432 0.336257 0.734508
vn -0.589432 0.336257 0.734508
vn -0.840932 0.149298 0.520138
vn -0.840932 0.149298 0.520138
vn -0.840932 0.149298 0.520138
vn -0.840932 0.149298 0.520138
vn -0.518270 0.242251 -0.820190
vn -0.518270 0.242251 -0.820190
vn -0.518270 0.242251 -0.820190
vn -0.518270 0.242251 -0.820190
vn -0.393954 0.326215 -0.859293
vn -0.393954 0.326215 -0.859293
vn -0.393954 0.326215 -0.859293
vn -0.393954 0.326215 -0.859293
vn -0.441633 0.314651 -0.840211
vn -0.441633 0.314651 -0.840211
vn -0.441633 0.314651 -0.840211
vn -0.441633 0.314651 -0.840211
vn -0.441633 0.314651 -0.840211
vn -0.441633 0.314651 -0.840211
vn -0.441633 0.314651 -0.840211
vn -0.441633 0.314651 -0.840211
vn -0.432036 0.409526 -0.803513
vn -0.432036 0.409526 -0.803513
vn -0.432036 0.409526 -0.803513
vn -0.432036 0.409526 -0.803513
vn -0.563192 0.314986 -0.763936
vn -0.563192 0.314986 -0.763936
vn -0.563192 0.314986 -0.763936
vn -0.563192 0.314986 -0.763936
vn -0.519790 0.345708 -0.781220
vn -0.519790 0.345708 -0.781220
vn -0.519790 0.345708 -0.781220
vn -0.519790 0.345708 -0.781220
vn -0.880658 0.423390 -0.212564
vn -0.880658 0.423390 -0.212564
vn -0.880658 0.423390 -0.212564
vn -0.880657 0.423390 -0.212564
vn -0.880659 0.423388 -0.212563
vn -0.880659 0.423388 -0.212563
vn -0.880659 0.423388 -0.212563
vn -0.880659 0.423388 -0.212563
vn 0.756193 0.269727 -0.596171
vn 0.756193 0.269727 -0.596171
vn 0.756193 0.269727 -0.596171
vn 0.756193 0.269727 -0.596171
vn 0.756193 0.269727 -0.596171
vn 0.756193 0.269727 -0.596171
vn 0.756193 0.269727 -0.596171
vn 0.756193 0.269727 -0.596171
vn 0.756193 0.269727 -0.596170
vn 0.756193 0.269727 -0.596170
vn 0.756193 0.269727 -0.596170
vn 0.756193 0.269727 -0.596170
vn 0.831170 0.247717 -0.497788
vn 0.831170 0.247717 -0.497788
vn 0.831170 0.247717 -0.497788
vn 0.831170 0.247717 -0.497788
vn 0.750072 0.338804 -0.567982
vn 0.750072 0.338804 -0.567982
vn 0.750072 0.338804 -0.567982
vn 0.750072 0.338804 -0.567982
vn 0.756193 0.269727 -0.596171
vn 0.756193 0.269727 -0.596171
vn 0.756193 0.269727 -0.596171
vn 0.756193 0.269727 -0.596171
vn 0.756193 0.269727 -0.596171
vn 0.756193 0.269727 -0.596171
vn 0.756193 0.269727 -0.596171
vn 0.756193 0.269727 -0.596171
vn 0.969227 0.246022 -0.008451
vn 0.969227 0.246022 -0.008451
vn 0.969227 0.246022 -0.008451
vn 0.969227 0.246022 -0.008451
vn 0.969227 0.246022 -0.008452
vn 0.969227 0.246022 -0.008452
vn 0.969227 0.246022 -0.008452
vn 0.969227 0.246022 -0.008452
vn 0.969227 0.246023 -0.008451
vn 0.969227 0.246023 -0.008451
vn 0.969227 0.246023 -0.008451
vn 0.969227 0.246023 -0.008451
vn 0.969227 0.246022 -0.008451
vn 0.969227 0.246022 -0.008451
vn 0.969227 0.246022 -0.008451
vn 0.969227 0.246022 -0.008451
vn 0.969227 0.246022 -0.008451
vn 0.969227 0.246022 -0.008451
vn 0.969227 0.246022 -0.008451
vn 0.969227 0.246022 -0.008451
vn 0.613994 0.784456 -0.087413
vn 0.613994 0.784456 -0.087413
vn 0.613994 0.784456 -0.087413
vn 0.613994 0.784456 -0.087413
vn 0.613994 0.784456 -0.087413
vn 0.613994 0.784456 -0.087413
vn 0.613994 0.784456 -0.087413
vn 0.613994 0.784456 -0.087413
vn 0.613994 0.784455 -0.087413
vn 0.613994 0.784455 -0.087413
vn 0.613994 0.784455 -0.087413
vn 0.613994 0.784455 -0.087413
vn 0.046040 0.211790 -0.976230
vn 0.046040 0.211790 -0.976230
vn 0.046040 0.211790 -0.976230
vn 0.046040 0.211790 -0.976230
vn 0.046040 0.211789 -0.976230
vn 0.046040 0.211789 -0.976230
vn 0.046040 0.211789 -0.976230
vn 0.046040 0.211789 -0.976230
vn -0.137416 0.669386 0.730095
vn -0.137416 0.669386 0.730095
vn -0.137416 0.669386 0.730095
vn -0.137416 0.669386 0.730095
vn -0.188831 0.522794 0.831281
vn -0.188831 0.522794 0.831281
vn -0.188831 0.522795 0.831281
vn -0.188831 0.522795 0.831281
vn -0.070581 0.412043 0.908426
vn -0.070581 0.412043 0.908426
vn -0.070581 0.412043 0.908426
vn -0.070581 0.412043 0.908426
vn 0.029602 0.443272 0.895898
vn 0.029602 0.443272 0.895898
vn 0.029602 0.443272 0.895898
vn 0.029602 0.443272 0.895898
vn 0.087388 0.517431 0.851251
vn 0.087388 0.517431 0.851251
vn 0.087388 0.517431 0.851251
vn 0.087388 0.517431 0.851251
vn 0.002323 0.289262 0.957247
vn 0.002323 0.289262 0.957247
vn 0.002323 0.289262 0.957247
vn 0.002323 0.289262 0.957247
vn 0.002323 0.289262 0.957247
vn 0.002323 0.289262 0.957247
vn 0.002323 0.289262 0.957247
vn 0.002323 0.289262 0.957247
vn 0.002323 0.289262 0.957247
vn 0.002323 0.289262 0.957247
vn 0.002323 0.289262 0.957247
vn 0.002323 0.289262 0.957247
s off
g pCube1
usemtl initialShadingGroup
f 35/45/1 1/1/2 30/39/3 29/38/4
f 31/41/5 2/2/6 37/48/7 36/46/8
f 44/57/9 3/5/10 41/54/11 40/53/12
f 48/65/13 4/7/14 46/60/15 45/58/16
f 54/72/17 5/8/18 50/67/19 49/66/20
f 35/45/21 6/9/22 56/74/23 55/73/24
f 57/75/25 7/10/26 61/81/27 60/80/28
f 56/74/29 6/9/30 34/44/31 65/87/32
f 59/97/33 11/15/34 69/92/35 68/90/36
f 69/100/37 11/16/38 58/76/39 72/98/40
f 53/108/41 18/26/42 74/103/43 73/101/44
f 75/115/45 19/27/46 78/111/47 77/109/48
f 74/119/49 18/25/50 52/69/51 81/116/52
f 76/107/53 23/32/54 42/55/55 83/120/56
f 67/89/57 27/36/58 85/122/59 84/121/60
f 66/88/61 26/35/62 33/43/63 86/123/64
f 30/39/65 2/2/66 31/41/67 29/38/68
f 31/41/69 14/20/70 32/42/71 29/38/72
f 32/42/73 25/34/74 33/43/75 29/38/76
f 33/43/77 26/35/78 34/44/79 29/38/80
f 34/44/81 6/9/82 35/45/83 29/38/84
f 37/48/85 8/12/86 38/49/87 36/46/88
f 38/49/89 15/21/90 39/51/91 36/46/92
f 39/51/93 14/20/94 31/41/95 36/46/96
f 41/54/97 22/31/98 42/55/99 40/53/100
f 42/55/101 23/32/102 43/56/103 40/53/104
f 43/56/105 9/13/106 44/57/107 40/53/108
f 46/60/109 3/5/110 44/57/111 45/58/112
f 44/57/113 9/13/114 47/61/115 45/58/116
f 47/61/117 8/11/118 37/62/119 45/58/120
f 37/62/121 2/4/122 30/63/123 45/58/124
f 30/63/125 1/3/126 48/65/127 45/58/128
f 50/67/129 16/23/130 51/68/131 49/66/132
f 51/68/133 20/29/134 52/69/135 49/66/136
f 52/69/137 18/25/138 53/70/139 49/66/140
f 53/70/141 10/14/142 54/72/143 49/66/144
f 56/74/145 7/10/146 57/75/147 55/73/148
f 57/75/149 12/17/150 58/76/151 55/73/152
f 58/76/153 11/16/154 59/78/155 55/73/156
f 59/78/157 4/6/158 48/79/159 55/73/160
f 48/79/161 1/1/162 35/45/163 55/73/164
f 61/81/165 17/24/166 62/82/167 60/80/168
f 62/82/169 16/23/170 50/67/171 60/80/172
f 50/67/173 5/8/174 63/83/175 60/80/176
f 63/83/177 13/18/178 64/85/179 60/80/180
f 64/85/181 12/17/182 57/75/183 60/80/184
f 34/44/185 26/35/186 66/88/187 65/87/188
f 66/88/189 27/36/190 67/89/191 65/87/192
f 67/89/193 17/24/194 61/81/195 65/87/196
f 61/81/197 7/10/198 56/74/199 65/87/200
f 69/92/201 13/19/202 63/93/203 68/90/204
f 63/93/205 5/8/206 54/72/207 68/90/208
f 54/72/209 10/14/210 70/94/211 68/90/212
f 70/94/213 24/33/214 71/95/215 68/90/216
f 71/95/217 22/31/218 41/54/219 68/90/220
f 41/54/221 3/5/222 46/96/223 68/90/224
f 46/96/225 4/6/226 59/97/227 68/90/228
f 58/76/229 12/17/230 64/99/231 72/98/232
f 64/99/233 13/19/234 69/100/235 72/98/236
f 74/103/237 19/28/238 75/105/239 73/101/240
f 75/105/241 15/22/242 38/106/243 73/101/244
f 38/106/245 8/11/246 47/61/247 73/101/248
f 47/61/249 9/13/250 43/56/251 73/101/252
f 43/56/253 23/32/254 76/107/255 73/101/256
f 76/107/257 24/33/258 70/94/259 73/101/260
f 70/94/261 10/14/262 53/108/263 73/101/264
f 78/111/265 21/30/266 79/112/267 77/109/268
f 79/112/269 28/37/270 80/113/271 77/109/272
f 80/113/273 25/34/274 32/42/275 77/109/276
f 32/42/277 14/20/278 39/114/279 77/109/280
f 39/114/281 15/22/282 75/115/283 77/109/284
f 52/69/285 20/29/286 82/117/287 81/116/288
f 82/117/289 21/30/290 78/118/291 81/116/292
f 78/118/293 19/28/294 74/119/295 81/116/296
f 42/55/297 22/31/298 71/95/299 83/120/300
f 71/95/301 24/33/302 76/107/303 83/120/304
f 85/122/305 28/37/306 79/112/307 84/121/308
f 79/112/309 21/30/310 82/117/311 84/121/312
f 82/117/313 20/29/314 51/68/315 84/121/316
f 51/68/317 16/23/318 62/82/319 84/121/320
f 62/82/321 17/24/322 67/89/323 84/121/324
f 33/43/325 25/34/326 80/113/327 86/123/328
f 80/113/329 28/37/330 85/122/331 86/123/332
f 85/122/333 27/36/334 66/88/335 86/123/336
